<svg xmlns="http://www.w3.org/2000/svg" width="1200" height="820" viewBox="0 0 1200 820" role="img" aria-labelledby="title"><title id="title">HK Kampüs</title><defs><linearGradient id="bg" x1="0" x2="1" y1="0" y2="1"><stop stop-color="#F6F8F3"/><stop offset="1" stop-color="#EEF3ED"/></linearGradient><linearGradient id="hill" x1="0" x2="1"><stop stop-color="#2E3A2F"/><stop offset="1" stop-color="#465846"/></linearGradient></defs><rect width="1200" height="820" rx="8" fill="url(#bg)"/><circle cx="958" cy="176" r="70" fill="#D4A72C" opacity=".72"/><path d="M0 612c144-122 279-167 421-108 120 50 219 37 330-48 143-110 290-130 449-55v419H0z" fill="url(#hill)" opacity=".9"/><path d="M0 666c165-90 307-115 454-63 154 54 296 26 430-52 121-70 217-84 316-47v316H0z" fill="#1F2A22" opacity=".92"/><path d="M166 430h512v210H166z" fill="#FFFFFF" opacity=".86"/><path d="M210 470h90v170h-90zm140 0h90v170h-90zm140 0h90v170h-90z" fill="#EEF3ED"/><path d="M146 430l276-142 276 142H146z" fill="#2E3A2F"/><path d="M776 506c44-72 114-112 196-112 80 0 150 39 192 106v140H776z" fill="#EEF3ED" opacity=".86"/><path d="M820 640c54-86 118-129 192-129s133 43 178 129H820z" fill="#354232" opacity=".5"/><path d="M86 92h1028v636H86z" fill="none" stroke="#C9D6C8" stroke-width="2"/><text x="108" y="162" fill="#2E3A2F" font-family="Aptos, Segoe UI, Arial, sans-serif" font-size="48" font-weight="800">HK Kampüs</text><text x="108" y="210" fill="#5E6A61" font-family="Aptos, Segoe UI, Arial, sans-serif" font-size="24" font-weight="600">doğa içinde yaşam dönüşümü</text></svg>
