<svg xmlns="http://www.w3.org/2000/svg" width="1200" height="820" viewBox="0 0 1200 820" role="img" aria-labelledby="title"><title id="title">Video</title><defs><linearGradient id="bg" x1="0" x2="1" y1="0" y2="1"><stop stop-color="#EEF3ED"/><stop offset="1" stop-color="#DDE8DC"/></linearGradient></defs><rect width="1200" height="820" rx="8" fill="url(#bg)"/><path d="M0 610c126-97 259-133 400-82 149 54 276 34 412-61 142-100 269-117 388-60v413H0z" fill="#2E3A2F" opacity=".86"/><path d="M0 690c140-65 286-79 438-42 158 38 304 22 438-48 124-65 232-74 324-33v253H0z" fill="#1F2A22" opacity=".9"/><rect x="92" y="92" width="1016" height="636" fill="none" stroke="#C9D6C8" stroke-width="2"/><circle cx="600" cy="410" r="86" fill="#D4A72C"/><path d="M575 362l86 48-86 48z" fill="#221C08"/><text x="108" y="164" fill="#2E3A2F" font-family="Aptos, Segoe UI, Arial, sans-serif" font-size="48" font-weight="800">Kamp atmosferi</text><text x="108" y="212" fill="#5E6A61" font-family="Aptos, Segoe UI, Arial, sans-serif" font-size="24" font-weight="600">video önizleme alanı</text></svg>
